<svg height="512pt" viewBox="0 -32 512.001 512" width="512pt" xmlns="http://www.w3.org/2000/svg"><path d="m216.703125 177.0625h-119.070313c-4.140624 0-7.5 3.359375-7.5 7.5s3.359376 7.5 7.5 7.5h119.066407c4.144531 0 7.5-3.359375 7.5-7.5.003906-4.140625-3.355469-7.5-7.496094-7.5zm0 28.917969h-119.070313c-4.140624 0-7.5 3.355469-7.5 7.5 0 4.140625 3.359376 7.5 7.5 7.5h119.066407c4.144531 0 7.5-3.359375 7.5-7.5.003906-4.144531-3.355469-7.5-7.496094-7.5zm287.796875-142.40625c-4.144531 0-7.5 3.359375-7.5 7.5v187.855469h-23.511719c.613281-1.984376.945313-4.09375.945313-6.277344v-193.808594c0-11.730469-9.542969-21.277344-21.277344-21.277344h-394.308594c-11.734375 0-21.28125 9.546875-21.28125 21.277344v193.808594c0 2.183594.332032 4.292968.949219 6.277344h-23.515625v-207.617188c0-20.023438 16.289062-36.3125 36.3125-36.3125h409.375c15.171875 0 28.878906 9.566406 34.101562 23.808594 1.429688 3.886718 5.734376 5.882812 9.625 4.457031 3.890626-1.425781 5.886719-5.734375 4.457032-9.625-7.378906-20.121094-26.746094-33.640625-48.183594-33.640625h-409.375c-28.292969 0-51.3125 23.019531-51.3125 51.3125v237.386719c0 23.65625 16.019531 44.140625 38.960938 49.8125.605468.148437 1.210937.222656 1.804687.222656 3.371094 0 6.429687-2.285156 7.277344-5.703125.992187-4.019531-1.460938-8.085938-5.480469-9.082031-16.226562-4.011719-27.5625-18.507813-27.5625-35.253907v-14.765624h482v14.769531c0 20.019531-16.289062 36.3125-36.3125 36.3125h-384.992188c-4.140624 0-7.5 3.355469-7.5 7.5 0 4.140625 3.359376 7.5 7.5 7.5h106.359376l-13.492188 57.640625h-15.015625c-10.398437 0-18.859375 8.460937-18.859375 18.859375v13.050781c0 10.398438 8.460938 18.859375 18.859375 18.859375h204.90625c10.398437 0 18.859375-8.460937 18.859375-18.859375v-13.050781c0-10.398438-8.460938-18.859375-18.859375-18.859375h-15.015625l-13.492188-57.644532h130.742188c28.292969 0 51.3125-23.015624 51.3125-51.3125v-217.621093c0-4.140625-3.355469-7.5-7.5-7.5zm-451.933594 32.628906 184.011719.003906-14.671875 18.832031c-1.871094 2.402344-4.6875 3.777344-7.730469 3.777344h-161.609375zm406.867188 156.449219c0 3.460937-2.816406 6.277344-6.277344 6.277344h-394.308594c-3.464844 0-6.28125-2.816407-6.28125-6.277344v-118.835938h161.609375c7.699219 0 14.832031-3.484375 19.5625-9.558594l14.878907-19.097656c3.511718-4.507812 4.132812-10.5 1.625-15.632812-2.507813-5.132813-7.617188-8.324219-13.332032-8.324219h-184.34375v-22.359375c0-3.460938 2.816406-6.277344 6.277344-6.277344h394.308594c3.464844 0 6.28125 2.816406 6.28125 6.277344zm-261.972656 87.355468h117.078124l13.492188 57.644532h-144.0625zm140.007812 72.644532h.015625.027344 20.941406c2.128906 0 3.859375 1.730468 3.859375 3.859375v13.050781c0 2.128906-1.730469 3.859375-3.859375 3.859375h-204.90625c-2.128906 0-3.859375-1.730469-3.859375-3.859375v-13.050781c0-2.128907 1.730469-3.859375 3.859375-3.859375h20.941406.027344.015625zm93.835938-284.503906c-11.417969-32.773438-42.550782-56.382813-79.132813-56.519532-.019531 0-.039063 0-.058594 0-.085937 0-.171875-.007812-.261719-.007812-.085937 0-.167968.007812-.253906.007812-.023437 0-.046875 0-.074218 0-36.578126.140625-67.707032 23.75-79.125 56.519532-.195313.429687-.347657.878906-.457032 1.347656-2.722656 8.265625-4.21875 17.085937-4.21875 26.253906s1.496094 17.984375 4.21875 26.253906c.109375.464844.261719.917969.457032 1.347656 11.449218 32.863282 42.730468 56.523438 79.449218 56.523438h.003906.003907c36.71875 0 67.996093-23.660156 79.449219-56.523438.191406-.429687.347656-.878906.457031-1.347656 2.722656-8.265625 4.214843-17.085937 4.214843-26.253906s-1.492187-17.984375-4.214843-26.253906c-.109375-.46875-.265625-.917969-.457031-1.347656zm-18.21875-4.425782h-27.539063c-3.292969-12.71875-8.519531-24.507812-15.375-34.617187 18.617187 5.121093 34.105469 17.847656 42.914063 34.617187zm-38.496094 32.027344c0 5.777344-.4375 11.472656-1.265625 17.023438h-42.945313c-.828125-5.550782-1.265625-11.246094-1.265625-17.023438s.4375-11.476562 1.265625-17.027344h42.945313c.828125 5.550782 1.265625 11.25 1.265625 17.027344zm-22.738282-65.894531c8.09375 9.191406 14.289063 20.855469 18.15625 33.867187h-36.308593c3.863281-13.011718 10.058593-24.675781 18.152343-33.867187zm-18.320312-.753907c-6.855469 10.113282-12.082031 21.898438-15.375 34.621094h-27.539062c8.808593-16.769531 24.296874-29.496094 42.914062-34.621094zm-50.804688 66.648438c0-5.875.738282-11.578125 2.125-17.027344h30.390626c-.738282 5.582032-1.128907 11.273438-1.128907 17.027344 0 5.75.390625 11.441406 1.128907 17.023438h-30.390626c-1.386718-5.449219-2.125-11.152344-2.125-17.023438zm7.890626 32.023438h27.539062c3.292969 12.71875 8.515625 24.507812 15.375 34.617187-18.617188-5.121094-34.105469-17.847656-42.914062-34.617187zm61.234374 33.867187c-8.089843-9.191406-14.289062-20.855469-18.152343-33.867187h36.304687c-3.863281 13.011718-10.058594 24.675781-18.152344 33.867187zm18.320313.75c6.859375-10.109375 12.082031-21.894531 15.375-34.617187h27.539063c-8.808594 16.769531-24.296876 29.496093-42.914063 34.617187zm48.679687-49.617187h-30.390624c.738281-5.582032 1.128906-11.273438 1.128906-17.027344 0-5.75-.390625-11.441406-1.128906-17.023438h30.390624c1.386719 5.449219 2.125 11.152344 2.125 17.023438 0 5.875-.738281 11.578125-2.125 17.027344zm-141.328124 126.695312c0-11.867188-9.65625-21.519531-21.523438-21.519531s-21.523438 9.652343-21.523438 21.519531c0 11.871094 9.65625 21.523438 21.523438 21.523438s21.523438-9.65625 21.523438-21.523438zm-28.046876 0c0-3.59375 2.925782-6.519531 6.523438-6.519531s6.523438 2.925781 6.523438 6.519531c0 3.597656-2.925782 6.523438-6.523438 6.523438s-6.523438-2.925782-6.523438-6.523438zm0 0"/></svg>