<svg xmlns="http://www.w3.org/2000/svg" xmlns:xlink="http://www.w3.org/1999/xlink" width="15" height="15" viewBox="0 0 15 15"><defs><path id="vp30a" d="M1156.465 41.5a.534.534 0 0 1-.536-.531 5.894 5.894 0 0 0-5.889-5.886.535.535 0 1 1 0-1.07c3.838 0 6.96 3.122 6.96 6.956a.533.533 0 0 1-.535.532zm-3.598.514a.534.534 0 0 1-.535-.533 2.809 2.809 0 0 0-2.806-2.804.536.536 0 0 1 0-1.07 3.881 3.881 0 0 1 3.877 3.874c0 .295-.24.533-.536.533zm-1.295 6.978c-.713 0-3.273-.236-6.302-3.261-3.026-3.023-3.261-5.583-3.261-6.296 0-1.292 1.5-3.309 2.468-3.324h.946a.79.79 0 0 1 .73.487l1.247 2.971a.79.79 0 0 1-.255.94c-.577.432-1.175.878-1.252 1.025.03.163.59 1.043 1.56 2.02.977.969 1.855 1.526 2.088 1.543.079-.063.526-.662.96-1.237a.791.791 0 0 1 .633-.318c.07 0 .239.034.304.061l2.978 1.246a.79.79 0 0 1 .485.732v.934c-.01.977-2.033 2.477-3.329 2.477zm-7.087-11.811c-.297.1-1.405 1.42-1.405 2.254 0 .61.212 2.807 2.948 5.541 2.737 2.731 4.936 2.946 5.544 2.946.838 0 2.162-1.109 2.263-1.452l-.003-.705-2.606-1.088c-.832 1.105-1.142 1.483-1.683 1.491-.902 0-2.407-1.423-2.847-1.858-.439-.441-1.86-1.942-1.86-2.843.008-.543.387-.853 1.493-1.682l-1.092-2.604z"/></defs><g><g transform="translate(-1142 -34)"><use fill="#fff" xlink:href="#vp30a"/><use fill="#542749" xlink:href="#vp30a"/></g></g></svg>